<svg aria-hidden="true" style="position:absolute;width:0;height:0;overflow:hidden" xmlns="http://www.w3.org/2000/svg"><defs><symbol id="arrow-left" viewBox="0 0 18 18"><path d="M17.484 8.437H2.815L6.19 5.062l-.795-.795L.662 9l4.733 4.733.795-.795-3.375-3.375h14.669V8.438z"/></symbol><symbol id="arrow-right" viewBox="0 0 18 18"><path d="m12.652 4.267-.795.795 3.375 3.375H.563v1.125h14.669l-3.375 3.375.795.795 4.733-4.733-4.733-4.733z"/></symbol><symbol id="fb" viewBox="0 0 18 18"><path d="M8.021 6.703v1.033h-.756v1.262h.756v3.752h1.554V8.998h1.043s.098-.605.145-1.268H9.581v-.863c0-.13.17-.303.338-.303h.846V5.249H9.614c-1.63 0-1.592 1.264-1.592 1.453z"/><path d="M4.5 3A1.503 1.503 0 0 0 3 4.5v9A1.503 1.503 0 0 0 4.5 15h9a1.503 1.503 0 0 0 1.5-1.5v-9A1.503 1.503 0 0 0 13.5 3h-9zm0-1.5h9a3.004 3.004 0 0 1 3 3v9a3.004 3.004 0 0 1-3 3h-9a3.004 3.004 0 0 1-3-3v-9a3.004 3.004 0 0 1 3-3z"/></symbol><symbol id="hug" viewBox="0 0 18 18"><path d="M11.813 1.5A1.687 1.687 0 0 1 13.5 3.187v11.625a1.687 1.687 0 0 1-1.687 1.687H6.188a1.687 1.687 0 0 1-1.687-1.687V3.187A1.687 1.687 0 0 1 6.188 1.5h5.625zm0 1.125H6.188a.562.562 0 0 0-.563.563v11.625c0 .31.252.563.563.563h5.625a.562.562 0 0 0 .563-.563V3.188a.562.562 0 0 0-.563-.563zm-1.876 10.5a.566.566 0 0 1 .563.561.566.566 0 0 1-.561.563l-1.875.003a.566.566 0 0 1-.563-.561.566.566 0 0 1 .561-.563l1.875-.003z"/></symbol><symbol id="instagram" viewBox="0 0 18 18"><path d="M5.599.8C6.479.759 6.759.75 9 .75s2.521.01 3.401.05c.879.04 1.479.18 2.004.383.55.208 1.049.532 1.461.953.42.412.744.91.951 1.46.204.525.343 1.125.384 2.003.041.881.05 1.162.05 3.402s-.01 2.521-.05 3.401c-.04.877-.18 1.477-.384 2.002a4.056 4.056 0 0 1-.951 1.462c-.413.42-.911.744-1.461.951-.525.204-1.125.343-2.002.384-.881.04-1.161.049-3.402.049s-2.521-.01-3.401-.049c-.878-.04-1.477-.18-2.003-.384a4.056 4.056 0 0 1-1.462-.951 4.041 4.041 0 0 1-.952-1.461C.98 13.88.84 13.28.8 12.403c-.041-.881-.049-1.162-.049-3.402S.761 6.48.8 5.6s.18-1.479.383-2.004c.208-.55.533-1.049.953-1.461a4.05 4.05 0 0 1 1.46-.952C4.121.98 4.721.84 5.599.8H5.6zm6.735 1.485c-.87-.04-1.131-.048-3.334-.048s-2.464.008-3.334.048c-.805.037-1.241.171-1.532.284-.385.15-.66.328-.949.616-.274.266-.484.59-.616.949-.113.291-.248.728-.284 1.532-.04.87-.048 1.131-.048 3.334s.008 2.464.048 3.334c.037.805.171 1.241.284 1.532.132.358.343.683.616.949.266.274.591.485.949.617.291.113.728.248 1.532.284.87.04 1.13.048 3.334.048s2.464-.008 3.334-.048c.805-.037 1.241-.171 1.532-.284.385-.15.66-.328.949-.617.274-.266.485-.591.617-.949.113-.291.248-.728.284-1.532.04-.87.048-1.131.048-3.334s-.008-2.464-.048-3.334c-.037-.805-.171-1.241-.284-1.532a2.56 2.56 0 0 0-.617-.949 2.546 2.546 0 0 0-.949-.616c-.291-.113-.728-.248-1.532-.284zm-4.388 9.258a2.755 2.755 0 0 0 3.346-1.011 2.752 2.752 0 0 0-1.365-4.123 2.752 2.752 0 0 0-1.98 5.135zM6.002 6.002A4.233 4.233 0 0 1 9.001 4.76a4.245 4.245 0 0 1 3.918 2.618A4.245 4.245 0 0 1 12 12a4.241 4.241 0 0 1-7.238-2.998c0-1.124.447-2.203 1.242-2.998zm8.179-.611a.996.996 0 0 0 .315-.715 1.014 1.014 0 0 0-.293-.724.998.998 0 0 0-1.113-.208 1.002 1.002 0 1 0 1.093 1.648z"/></symbol><symbol id="location" viewBox="0 0 18 18"><path d="M9 1.808a4.492 4.492 0 0 0-4.5 4.491c0 4.297 4.5 9.9 4.5 9.9s4.5-5.604 4.5-9.9A4.493 4.493 0 0 0 9 1.808zm0 6.976a2.428 2.428 0 0 1-2.43-2.43A2.428 2.428 0 0 1 9 3.924a2.428 2.428 0 0 1 2.43 2.43A2.428 2.428 0 0 1 9 8.784z"/></symbol><symbol id="telegram" viewBox="0 0 18 18"><path d="M16.697 1.347a2.016 2.016 0 0 0-.63.151h-.003c-.192.076-1.107.461-2.498 1.044L8.583 4.641c-3.575 1.505-7.09 2.988-7.09 2.988l.042-.016s-.242.08-.495.253c-.156.1-.291.23-.396.383a1.122 1.122 0 0 0-.187.749c.061.487.377.78.603.941.23.163.448.24.448.24h.005l3.296 1.11c.148.474 1.004 3.291 1.21 3.939.121.387.24.63.387.815a.948.948 0 0 0 .256.237c.052.03.108.054.166.072l-.034-.008c.01.003.018.011.026.014a.64.64 0 0 0 .08.015c.522.158.941-.166.941-.166l.024-.019 1.946-1.772 3.262 2.502.074.032c.68.298 1.368.132 1.732-.161.367-.295.509-.672.509-.672l.024-.061 2.52-12.912c.072-.319.09-.617.011-.907a1.223 1.223 0 0 0-.527-.707 1.257 1.257 0 0 0-.72-.182zm-.068 1.384c-.003.043.005.038-.014.119v.007l-2.497 12.778c-.011.018-.029.058-.079.098-.053.042-.095.068-.314-.019l-3.989-3.058-2.41 2.196.506-3.233 6.518-6.075c.269-.25.179-.302.179-.302.019-.306-.406-.09-.406-.09l-8.219 5.092-.003-.014-3.949-1.331a.12.12 0 0 0 .02-.008l.022-.011.021-.007 7.093-2.988c1.79-.754 3.594-1.513 4.981-2.099a586.18 586.18 0 0 1 2.47-1.033c.055-.022.029-.022.069-.022V2.73z"/></symbol></defs></svg>